<svg xmlns="http://www.w3.org/2000/svg" viewBox="0 0 24 24" fill="currentColor" class="h-7 w-7">
  <path fill-rule="evenodd" clip-rule="evenodd"
    d="M12 2C6.48 2 2 6.7 2 12.37c0 4.52 2.87 8.35 6.84 9.71.5.1.68-.22.68-.48 
       0-.24-.01-.87-.01-1.71-2.78.63-3.37-1.37-3.37-1.37-.45-1.18-1.1-1.5-1.1-1.5-.9-.64.07-.63.07-.63 
       1 .07 1.53 1.06 1.53 1.06.89 1.57 2.34 1.12 2.91.86.09-.67.35-1.12.63-1.38-2.22-.26-4.55-1.15-4.55-5.14 
       0-1.14.39-2.07 1.03-2.8-.1-.26-.45-1.3.1-2.7 0 0 .84-.28 2.75 1.06A9.38 9.38 0 0112 6.07c.85 0 1.71.12 2.51.34 
       1.9-1.34 2.74-1.06 2.74-1.06.56 1.4.22 2.44.11 2.7.64.73 1.02 1.66 1.02 2.8 
       0 4-2.34 4.87-4.57 5.13.36.33.68.98.68 1.98 0 1.43-.01 2.58-.01 2.93 
       0 .27.18.59.69.48A10.06 10.06 0 0022 12.37C22 6.7 17.52 2 12 2z"/>
</svg>
